/vscmnt/brussel_pixiu_data/_data_brussel/112/vsc11236/PredSimResults/SUBJ07mtu3D/worker2.mot
version=1
nRows=9
nColumns=50
inDegrees=yes
endheader
                time	         pelvis_tilt	         pelvis_list	     pelvis_rotation	           pelvis_tx	           pelvis_ty	           pelvis_tz	       hip_flexion_r	     hip_adduction_r	      hip_rotation_r	        knee_angle_r	       ankle_angle_r	         mtp_angle_r	       hip_flexion_l	     hip_adduction_l	      hip_rotation_l	        knee_angle_l	       ankle_angle_l	         mtp_angle_l	    lumbar_extension	      lumbar_bending	     lumbar_rotation	 ercspn_r/activation	 intobl_r/activation	 extobl_r/activation	    abd_r/activation	    add_r/activation	hamstrings_r/activation	bifemsh_r/activation	glut_max_r/activation	iliopsoas_r/activation	rect_fem_r/activation	  vasti_r/activation	gastroc_r/activation	 soleus_r/activation	tib_ant_r/activation	 ercspn_l/activation	 intobl_l/activation	 extobl_l/activation	    abd_l/activation	    add_l/activation	hamstrings_l/activation	bifemsh_l/activation	glut_max_l/activation	iliopsoas_l/activation	rect_fem_l/activation	  vasti_l/activation	gastroc_l/activation	 soleus_l/activation	tib_ant_l/activation	
          1.64812550	         -3.47947223	         -0.33101621	         -8.18938433	          2.01071311	          0.85065881	          0.01313792	        -15.10330212	          0.68299843	          3.64785845	         -8.70510793	          8.10427524	         27.42652755	         29.82091332	         -2.53594118	         -4.20373584	         -7.84598050	          3.60115706	          0.26637590	        -10.93661011	          2.03934278	          1.11640622	          0.13589394	          0.01000133	          0.01000154	          0.03467484	          0.01029528	          0.01528137	          0.13922075	          0.01656808	          0.15958033	          0.01183645	          0.01002466	          0.12356797	          0.27719727	          0.02002436	          0.12867425	          0.14114903	          0.01000540	          0.01997734	          0.12899673	          0.05802604	          0.09490490	          0.08529473	          0.02224326	          0.01183416	          0.01000222	          0.01000352	          0.01000117	          0.38651651	
          1.65911300	         -3.48275517	         -0.38523930	         -8.19497213	          2.02637614	          0.84923564	          0.01294656	        -15.55800650	          0.63309731	          3.31694504	         -9.75920773	          7.14944170	         29.01663631	         29.51073149	         -2.33191464	         -3.78438577	         -9.15382414	          3.30409646	          0.24922486	        -10.82536509	          1.64686687	          1.34054497	          0.15003950	          0.01000056	          0.01000526	          0.02930789	          0.02364900	          0.01298268	          0.11767371	          0.01400411	          0.13488469	          0.01000764	          0.01000104	          0.10444225	          0.25867659	          0.01692501	          0.10875917	          0.12820973	          0.01000135	          0.01688743	          0.10903254	          0.05712254	          0.10287212	          0.13342387	          0.01880071	          0.01000546	          0.01000164	          0.01653959	          0.01183261	          0.41573037	
          1.67010051	         -3.47960726	         -0.43940733	         -8.14977567	          2.04219288	          0.84802463	          0.01266819	        -15.87458933	          0.59616756	          2.94307951	        -11.07721790	          6.08040191	         30.55049858	         29.13257257	         -2.17700143	         -3.38519178	        -10.39017526	          2.92891423	          0.24582599	        -10.70621528	          1.25364680	          1.55768649	          0.16362683	          0.01000049	          0.01000161	          0.02477164	          0.01999042	          0.01109972	          0.09946143	          0.01183737	          0.11401028	          0.01002915	          0.01000374	          0.08827674	          0.23691736	          0.01430539	          0.14269949	          0.10836593	          0.01000153	          0.10026877	          0.12638750	          0.05388608	          0.09126369	          0.13149648	          0.01589108	          0.01000158	          0.01000032	          0.01397991	          0.01000133	          0.47100181	
          1.68108801	         -3.47163042	         -0.50930037	         -8.05765844	          2.05797494	          0.84718233	          0.01229061	        -15.97140033	          0.58881740	          2.53890216	        -12.77380731	          4.87821090	         31.97148006	         28.77474768	         -2.04009823	         -3.05927438	        -11.64245018	          2.50217131	          0.22733982	        -10.59984450	          0.87775599	          1.76654101	          0.19761849	          0.01000052	          0.01000171	          0.02093751	          0.02381563	          0.01059100	          0.08406803	          0.01000744	          0.09636580	          0.01002159	          0.01000611	          0.07461330	          0.20263995	          0.01209125	          0.15056822	          0.09159323	          0.01000136	          0.14517635	          0.15134891	          0.04636731	          0.07714001	          0.15322514	          0.01343180	          0.01000323	          0.01000402	          0.01181710	          0.01000151	          0.49244652	
          1.69207551	         -3.45893190	         -0.58719254	         -7.92459393	          2.07359289	          0.84682776	          0.01182015	        -15.77619036	          0.60228727	          2.10867707	        -14.95542529	          3.56692037	         33.13563339	         28.49244584	         -1.90849734	         -2.78655762	        -13.05018924	          2.28593773	          0.20945403	        -10.51388529	          0.51241934	          1.96576131	          0.23044081	          0.01000052	          0.01000164	          0.01769683	          0.04748551	          0.01036285	          0.07105742	          0.01000148	          0.08145176	          0.01000725	          0.01000151	          0.06306468	          0.17127546	          0.01021989	          0.15875108	          0.07741656	          0.01000118	          0.18047829	          0.17396511	          0.04471781	          0.06520237	          0.17086301	          0.01135344	          0.01000308	          0.03097894	          0.01000312	          0.01000165	          0.49689562	
          1.70306302	         -3.44297587	         -0.67200977	         -7.75186302	          2.08896106	          0.84707387	          0.01127225	        -15.22221025	          0.63536682	          1.64093099	        -17.71673291	          2.16183019	         33.83964856	         28.24807957	         -1.78223305	         -2.56687235	        -14.52890515	          2.28942269	          0.19119541	        -10.45000778	          0.15868654	          2.15231277	          0.25192494	          0.01000053	          0.01000167	          0.01495774	          0.07482136	          0.01018772	          0.06006087	          0.01000089	          0.06884565	          0.01000500	          0.01000085	          0.05330357	          0.14476541	          0.01000042	          0.16281652	          0.06543413	          0.01000107	          0.20014521	          0.19297130	          0.04468668	          0.05511288	          0.17799525	          0.01000217	          0.01000315	          0.05697394	          0.01000486	          0.01000186	          0.47946381	
          1.71405052	         -3.42542272	         -0.76330225	         -7.54034004	          2.10405221	          0.84796226	          0.01066534	        -14.26606669	          0.68198224	          1.13479028	        -21.10739720	          0.63468158	         33.91107598	         27.96270465	         -1.65751782	         -2.38564044	        -15.92741246	          2.50128519	          0.17756410	        -10.40364916	         -0.18242870	          2.32266422	          0.25814471	          0.01000055	          0.01000191	          0.01264262	          0.09595194	          0.01018972	          0.05076690	          0.01000071	          0.05819043	          0.01000365	          0.01000053	          0.04505328	          0.12235856	          0.01000043	          0.15850161	          0.05530631	          0.01000107	          0.20468664	          0.20205279	          0.04587772	          0.04658572	          0.17818678	          0.01000236	          0.01000269	          0.07529862	          0.01000414	          0.01000139	          0.44789416	
          1.72503802	         -3.40788627	         -0.85756377	         -7.29140215	          2.11886529	          0.84944260	          0.01000983	        -12.89914763	          0.72949855	          0.61488127	        -25.08278732	         -1.16631651	         33.35365241	         27.57251241	         -1.52690152	         -2.21813561	        -17.11874383	          2.87651347	          0.17697784	        -10.36971100	         -0.51258357	          2.47397897	          0.26467378	          0.01000046	          0.01000142	          0.01068588	          0.11151534	          0.01006348	          0.04291228	          0.01000048	          0.04918427	          0.01000266	          0.01000025	          0.03807999	          0.10341984	          0.01000075	          0.13397279	          0.04674606	          0.01000096	          0.19881696	          0.20141903	          0.05242218	          0.03937926	          0.16484911	          0.01000246	          0.01000350	          0.10173404	          0.01000376	          0.01000128	          0.40695936	
          1.73602553	         -3.39232674	         -0.95183072	         -7.00536381	          2.13338462	          0.85142382	          0.00930309	        -11.14418081	          0.77076823	          0.12173750	        -29.53775052	         -3.28038791	         32.00100306	         27.02902741	         -1.38204771	         -2.02935007	        -17.99829000	          3.35948310	          0.21008844	        -10.34868601	         -0.82996411	          2.60569942	          0.25601597	          0.01000060	          0.01000180	          0.01000026	          0.12384339	          0.01618393	          0.03627226	          0.01000080	          0.04157195	          0.01000195	          0.01000027	          0.03218604	          0.08741247	          0.05021288	          0.11323674	          0.03951076	          0.01000127	          0.20073186	          0.18775697	          0.06126857	          0.03328902	          0.13933596	          0.01000189	          0.01000205	          0.12782946	          0.01000412	          0.01000113	          0.36540277	
